PathFileType	4	(X/Y/Z)	Patient4_TMGait_0pt6_01_right_04.trc.trc
DataRate	CameraRate	NumFrames	NumMarkers	Units	OrigDataRate	OrigDataStartFrame	OrigNumFrames
81.871345029240	81.871345029240	4	33	mm	81.871345029240	36	       141
Frame#	Time	Sacral			L.Shoulder			Chest			R.Shoulder			Neck			R.ASIS			L.ASIS			R.Thigh.Superior			R.Thigh.Lateral			R.Thigh.Inferior			R.Patella			L.Thigh.Superior			L.Thigh.Lateral			L.Thigh.Inferior			L.Patella			L.Shank.Superior			L.Shank.Lateral			L.Shank.Inferior			R.Shank.Superior			R.Shank.Lateral			R.Shank.Inferior			R.Heel			R.Midfoot.Superior			R.Midfoot.Lateral			R.Toe			L.Heel			L.Midfoot.Lateral			L.Midfoot.Superior			L.Toe			L.Elbow			L.Wrist			R.Elbow			R.Wrist			
		X1	Y1	Z1	X2	Y2	Z2	X3	Y3	Z3	X4	Y4	Z4	X5	Y5	Z5	X6	Y6	Z6	X7	Y7	Z7	X8	Y8	Z8	X9	Y9	Z9	X10	Y10	Z10	X11	Y11	Z11	X12	Y12	Z12	X13	Y13	Z13	X14	Y14	Z14	X15	Y15	Z15	X16	Y16	Z16	X17	Y17	Z17	X18	Y18	Z18	X19	Y19	Z19	X20	Y20	Z20	X21	Y21	Z21	X22	Y22	Z22	X23	Y23	Z23	X24	Y24	Z24	X25	Y25	Z25	X26	Y26	Z26	X27	Y27	Z27	X28	Y28	Z28	X29	Y29	Z29	X30	Y30	Z30	X31	Y31	Z31	X32	Y32	Z32	X33	Y33	Z33	

36	4.617500000000	636.856299218642	997.531893989714	476.486139686908	794.714519496380	1428.283688666644	293.044342455930	900.585140921012	1365.259379562920	454.398011248135	814.086879825062	1436.932207561995	626.407066317527	779.229814533071	1489.928366607522	445.224929178841	864.207220817208	939.679013500112	593.641904061181	849.520733888049	955.425814030752	320.214099895330	926.439405344882	748.462176724395	563.788656670810	856.707457587970	632.968011715596	621.817390927063	939.616248347217	589.154320313368	541.529657430125	950.071735258811	499.738486778527	547.624640099392	888.781643967664	735.544121617506	344.837950511249	800.160372786208	622.936230165077	279.278061293888	885.249286093128	536.921784703056	335.880746287289	876.070959737396	451.259820843170	332.464747062742	807.247137684840	394.174842502785	329.332124412198	666.461682720873	349.850356149642	283.237885096537	652.812921369112	223.752661305853	343.220161730426	927.937244651483	409.355320439419	553.680157217308	863.951049928059	300.209326251963	613.033157607454	912.809893449437	208.938754848631	549.921440303182	788.531699782515	41.860115989417	515.475171993317	958.881292879371	97.197947440222	553.831207098054	870.357690402768	36.459300065446	591.809254029710	1078.741971613354	44.161171762410	584.529860476506	462.868527147044	155.279623339682	386.597074733975	520.208185552570	111.657795414966	305.791327955195	624.273114080335	124.940712649335	324.538619295829	706.184166404397	31.188166198643	297.021344713656	870.982841448616	1084.778882944593	178.243563238602	1106.202575169599	1006.531869365875	255.249574729989	816.297504828630	1094.042181312934	754.603954334430	1026.176281053882	973.054225213521	670.862187306502	
37	4.629714285714	637.225344917251	998.751360132594	480.103663329367	794.212083218301	1429.326475539926	295.512649560987	901.478837336705	1366.164243247051	455.925058037863	816.680722504939	1437.871459948804	628.735667492308	780.147134754442	1490.934304047416	447.843499806059	865.343835713528	940.438493478060	595.295858679720	848.717450999558	956.409850439343	321.720864231799	925.161784704497	747.732082355418	566.304621850225	853.714610555929	633.052233635271	623.692601899461	936.339672268270	588.459898072645	543.485093193521	945.784422532998	499.069945297808	549.155154208433	893.102516334512	738.886476430630	346.358239157663	808.534155783626	624.347556361662	280.041329975722	896.177912464342	540.095333718376	336.440772749578	888.142995012700	453.386894048725	332.496517797856	817.799193213456	396.329691995109	329.452239516264	675.426633578024	356.534672810349	283.673839167565	658.312314677711	230.698743136927	343.320095027957	923.035769377573	408.949663977946	554.990089642497	858.258236216277	300.121047571846	613.952511751049	906.487175662295	208.704277177081	550.565182114422	781.316618102436	41.912177638217	515.680796593448	951.635900578584	97.231649076146	554.166753904797	863.111200646815	36.464066981498	592.006967658566	1071.512239376319	43.941601536200	584.879108283429	466.142930856709	170.636775110450	386.720233661503	521.321026668489	123.885480937972	305.892256520659	626.313922864344	131.439784106929	324.623334390730	702.542825321745	31.100166373151	297.154888994668	862.693731686779	1082.243203851438	183.703432721720	1092.991952409241	984.263280816983	254.663177606477	821.524453881921	1095.794293634277	757.947921214705	1035.435130578740	986.773239702201	670.443253789306	
38	4.641928571429	637.346030858436	999.933492732727	483.495457674870	793.537618430710	1430.290485431088	297.881011880297	902.275913930725	1366.939404854939	457.288452424542	819.294652074927	1438.687492567137	630.945255300459	781.026488273150	1491.877463190442	450.351972208819	866.222556230104	941.067258902755	596.810762573448	847.821664388371	957.285661310725	323.040734378256	923.604151448468	746.938233321527	568.755798749919	850.488551780800	633.086371291650	625.475333145412	932.829506597214	587.741332891534	545.361166277222	941.231393240407	498.416044839148	550.639831258161	897.178438412912	742.426378585977	347.741879391244	816.579271512647	626.110999360133	280.692871782947	906.614442645301	543.716434867766	336.982041283732	899.884864225826	456.051599512745	332.631827903737	828.260384684565	398.894511879009	329.615511959623	684.574067443376	363.134053293789	284.155235178349	664.403742753361	237.586131144567	343.526958961370	917.938526543671	408.546742072882	556.248386529172	852.411835568591	300.015724342517	614.839048902204	900.088447983286	208.478460251824	551.192546203287	774.044351385510	41.992397831365	515.875499948805	944.390582917614	97.199156425196	554.503069293530	855.818777622767	36.456344732016	592.180426450173	1064.249871689188	43.614939035944	585.171557031965	470.538151154937	184.873661450883	387.000392891201	523.751290253863	135.577958047995	306.099318601107	629.379461745805	138.138568074954	324.831133930907	700.537166337763	31.613856554095	297.215771611706	854.573417987242	1079.935872406596	189.081368288274	1078.007020591942	962.575779589018	253.773862966481	827.004667751087	1097.468684578999	761.198389892429	1044.477326682062	1000.938370135122	670.150172460513	
39	4.654142857143	637.233118949570	1001.080822655914	486.634688444645	792.711625524104	1431.188840780655	300.135785810407	902.963025635186	1367.610657398914	458.494801075169	821.869783534032	1439.408275820874	633.018053323642	781.857220843112	1492.772444557890	452.730431507036	866.847567697026	941.591588674288	598.203063788510	846.854255833809	958.095546626121	324.232571090323	921.830569569430	746.147357801957	571.052596777332	847.144741329364	633.110088780377	627.145541007285	929.170063552406	587.029812934063	547.117097285540	936.504719784010	497.796780258726	552.052129952814	900.904562496451	746.130296201414	349.030075267284	824.142355934689	628.225575519779	281.245077725334	916.405480118266	547.754543911530	337.473851149863	911.146879062303	459.231013625347	332.783296517471	838.503130214727	401.838805826761	329.762519647473	693.760175124311	369.464553252193	284.659786609651	671.097594376865	244.159957014788	343.787826671131	912.720036121688	408.163468212376	557.435146178884	846.477104162689	299.921043864937	615.692350592007	893.648982021906	208.272952817290	551.798070113304	766.723625217101	42.103684638863	516.065205095474	937.148358702039	97.117147175618	554.832731402154	848.488444303325	36.444892496048	592.336976063960	1056.959041400753	43.213472020412	585.413887243800	476.039944115258	197.390413568548	387.426790359274	527.585933405579	146.192889225298	306.397707817565	633.604537314257	144.722299724512	325.098331514962	700.555609379506	32.793763434460	297.165197469725	846.641879383870	1077.884485194215	194.261793573712	1061.268322454177	941.746598966299	252.572046761902	832.775786775446	1099.078492598581	764.279833927038	1053.277478096459	1015.461434935224	669.949626916235	
